<mxfile host="app.diagrams.net" agent="Mozilla/5.0 (Macintosh; Intel Mac OS X 10_15_7) AppleWebKit/537.36 (KHTML, like Gecko) Chrome/127.0.0.0 Safari/537.36" version="24.7.7">
  <diagram name="Page-1" id="_1Fkg7HxHHNypiMmNkzc">
    <mxGraphModel dx="1434" dy="795" grid="1" gridSize="10" guides="1" tooltips="1" connect="1" arrows="1" fold="1" page="1" pageScale="1" pageWidth="827" pageHeight="1169" math="0" shadow="0">
      <root>
        <mxCell id="0" />
        <mxCell id="1" parent="0" />
        <mxCell id="QYGUEnlF_-VvRAkq79qz-1" style="edgeStyle=orthogonalEdgeStyle;rounded=0;orthogonalLoop=1;jettySize=auto;html=1;entryX=0;entryY=0.5;entryDx=0;entryDy=0;" edge="1" parent="1" source="QYGUEnlF_-VvRAkq79qz-2" target="QYGUEnlF_-VvRAkq79qz-4">
          <mxGeometry relative="1" as="geometry" />
        </mxCell>
        <mxCell id="QYGUEnlF_-VvRAkq79qz-2" value="Rec Development workflow" style="ellipse;whiteSpace=wrap;html=1;aspect=fixed;" vertex="1" parent="1">
          <mxGeometry x="170" y="170" width="80" height="80" as="geometry" />
        </mxCell>
        <mxCell id="QYGUEnlF_-VvRAkq79qz-3" value="" style="edgeStyle=orthogonalEdgeStyle;rounded=0;orthogonalLoop=1;jettySize=auto;html=1;" edge="1" parent="1" source="QYGUEnlF_-VvRAkq79qz-4" target="QYGUEnlF_-VvRAkq79qz-6">
          <mxGeometry relative="1" as="geometry" />
        </mxCell>
        <mxCell id="QYGUEnlF_-VvRAkq79qz-4" value="Project Space in Clickup" style="rounded=1;whiteSpace=wrap;html=1;" vertex="1" parent="1">
          <mxGeometry x="350" y="180" width="120" height="60" as="geometry" />
        </mxCell>
        <mxCell id="QYGUEnlF_-VvRAkq79qz-5" style="edgeStyle=orthogonalEdgeStyle;rounded=0;orthogonalLoop=1;jettySize=auto;html=1;entryX=0;entryY=0.5;entryDx=0;entryDy=0;" edge="1" parent="1" source="QYGUEnlF_-VvRAkq79qz-6" target="QYGUEnlF_-VvRAkq79qz-7">
          <mxGeometry relative="1" as="geometry" />
        </mxCell>
        <mxCell id="QYGUEnlF_-VvRAkq79qz-6" value="Create ticket in clickup" style="rounded=1;whiteSpace=wrap;html=1;" vertex="1" parent="1">
          <mxGeometry x="540" y="180" width="120" height="60" as="geometry" />
        </mxCell>
        <mxCell id="QYGUEnlF_-VvRAkq79qz-7" value="Create branch in under the project in github in the same name with ticket id" style="whiteSpace=wrap;html=1;rounded=1;" vertex="1" parent="1">
          <mxGeometry x="720" y="175" width="140" height="70" as="geometry" />
        </mxCell>
        <mxCell id="QYGUEnlF_-VvRAkq79qz-8" style="edgeStyle=orthogonalEdgeStyle;rounded=0;orthogonalLoop=1;jettySize=auto;html=1;entryX=0;entryY=0.5;entryDx=0;entryDy=0;" edge="1" parent="1" source="QYGUEnlF_-VvRAkq79qz-9" target="QYGUEnlF_-VvRAkq79qz-11">
          <mxGeometry relative="1" as="geometry" />
        </mxCell>
        <mxCell id="QYGUEnlF_-VvRAkq79qz-9" value="Code only relavant to the ticket created&amp;nbsp;" style="whiteSpace=wrap;html=1;rounded=1;" vertex="1" parent="1">
          <mxGeometry x="970" y="180" width="120" height="60" as="geometry" />
        </mxCell>
        <mxCell id="QYGUEnlF_-VvRAkq79qz-10" style="edgeStyle=orthogonalEdgeStyle;rounded=0;orthogonalLoop=1;jettySize=auto;html=1;entryX=0;entryY=0.5;entryDx=0;entryDy=0;" edge="1" parent="1" source="QYGUEnlF_-VvRAkq79qz-11" target="QYGUEnlF_-VvRAkq79qz-13">
          <mxGeometry relative="1" as="geometry" />
        </mxCell>
        <mxCell id="QYGUEnlF_-VvRAkq79qz-11" value="Commit&amp;nbsp;" style="whiteSpace=wrap;html=1;rounded=1;" vertex="1" parent="1">
          <mxGeometry x="1200" y="180" width="120" height="60" as="geometry" />
        </mxCell>
        <mxCell id="QYGUEnlF_-VvRAkq79qz-12" value="" style="edgeStyle=orthogonalEdgeStyle;rounded=0;orthogonalLoop=1;jettySize=auto;html=1;" edge="1" parent="1" source="QYGUEnlF_-VvRAkq79qz-13" target="QYGUEnlF_-VvRAkq79qz-16">
          <mxGeometry relative="1" as="geometry" />
        </mxCell>
        <mxCell id="QYGUEnlF_-VvRAkq79qz-13" value="Create a PR and request reviewer for code review" style="whiteSpace=wrap;html=1;rounded=1;" vertex="1" parent="1">
          <mxGeometry x="1400" y="180" width="120" height="60" as="geometry" />
        </mxCell>
        <mxCell id="QYGUEnlF_-VvRAkq79qz-14" style="edgeStyle=orthogonalEdgeStyle;rounded=0;orthogonalLoop=1;jettySize=auto;html=1;entryX=0;entryY=0.5;entryDx=0;entryDy=0;" edge="1" parent="1" source="QYGUEnlF_-VvRAkq79qz-7" target="QYGUEnlF_-VvRAkq79qz-9">
          <mxGeometry relative="1" as="geometry" />
        </mxCell>
        <mxCell id="QYGUEnlF_-VvRAkq79qz-15" value="" style="edgeStyle=orthogonalEdgeStyle;rounded=0;orthogonalLoop=1;jettySize=auto;html=1;" edge="1" parent="1" source="QYGUEnlF_-VvRAkq79qz-16" target="QYGUEnlF_-VvRAkq79qz-18">
          <mxGeometry relative="1" as="geometry" />
        </mxCell>
        <mxCell id="QYGUEnlF_-VvRAkq79qz-16" value="Merge it to dev" style="whiteSpace=wrap;html=1;rounded=1;" vertex="1" parent="1">
          <mxGeometry x="1400" y="320" width="120" height="60" as="geometry" />
        </mxCell>
        <mxCell id="QYGUEnlF_-VvRAkq79qz-17" value="" style="edgeStyle=orthogonalEdgeStyle;rounded=0;orthogonalLoop=1;jettySize=auto;html=1;" edge="1" parent="1" source="QYGUEnlF_-VvRAkq79qz-18" target="QYGUEnlF_-VvRAkq79qz-20">
          <mxGeometry relative="1" as="geometry" />
        </mxCell>
        <mxCell id="QYGUEnlF_-VvRAkq79qz-18" value="Test dev branch build &lt;br&gt;after merge" style="shape=parallelogram;perimeter=parallelogramPerimeter;whiteSpace=wrap;html=1;fixedSize=1;rounded=1;" vertex="1" parent="1">
          <mxGeometry x="1160" y="320" width="160" height="60" as="geometry" />
        </mxCell>
        <mxCell id="QYGUEnlF_-VvRAkq79qz-19" style="edgeStyle=orthogonalEdgeStyle;rounded=0;orthogonalLoop=1;jettySize=auto;html=1;entryX=0.5;entryY=1;entryDx=0;entryDy=0;" edge="1" parent="1" source="QYGUEnlF_-VvRAkq79qz-20" target="QYGUEnlF_-VvRAkq79qz-6">
          <mxGeometry relative="1" as="geometry">
            <mxPoint x="400" y="270" as="targetPoint" />
            <Array as="points">
              <mxPoint x="600" y="350" />
            </Array>
          </mxGeometry>
        </mxCell>
        <mxCell id="QYGUEnlF_-VvRAkq79qz-20" value="Create Main PR to merge dev&amp;nbsp;" style="whiteSpace=wrap;html=1;rounded=1;" vertex="1" parent="1">
          <mxGeometry x="940" y="320" width="120" height="60" as="geometry" />
        </mxCell>
      </root>
    </mxGraphModel>
  </diagram>
</mxfile>
